<?xml version="1.0" encoding="utf-8"?>
<!-- Generator: Adobe Illustrator 28.0.0, SVG Export Plug-In . SVG Version: 6.00 Build 0)  -->
<svg version="1.1" id="Capa_1" xmlns="http://www.w3.org/2000/svg" xmlns:xlink="http://www.w3.org/1999/xlink" x="0px" y="0px"
	 viewBox="0 0 204.2 32.4" style="enable-background:new 0 0 204.2 32.4;" xml:space="preserve">
<path d="M25.8,2.5c0.3-0.1,0.5-0.2,0.8-0.2c0.2,0,0.4,0,0.6,0.1c0.5,0.1,0.8,0.4,1.1,0.8c0.3,0.4,0.4,0.8,0.4,1.3v22.3
	c0,0.6-0.2,1.1-0.6,1.5s-0.9,0.6-1.5,0.6s-1.1-0.2-1.5-0.6s-0.6-0.9-0.6-1.5V12.4L17.7,24c-0.2,0.3-0.5,0.6-0.8,0.7
	c-0.3,0.1-0.6,0.2-0.9,0.2c-0.3,0-0.6-0.1-0.9-0.2c-0.3-0.2-0.7-0.4-0.8-0.7c0-0.1-6.8-11.6-6.8-11.6v14.4c0,0.6-0.2,1.1-0.6,1.5
	C6.3,28.8,5.8,29,5.2,29s-1.1-0.2-1.5-0.6c-0.4-0.5-0.6-1-0.6-1.6V4.5c0-0.5,0.1-0.9,0.4-1.3s0.7-0.7,1.1-0.8C4.8,2.3,5,2.3,5.2,2.3
	c0.3,0,0.5,0,0.8,0.2C6.5,2.7,6.8,3,7.1,3.4l8.9,15l8.9-15C25,3,25.4,2.7,25.8,2.5z M46.5,3.6c0.3-0.5,0.7-1.3,1.9-1.3
	c1.1,0,1.7,0.7,1.9,1.3l10.2,22.3c0.3,0.5,0.3,1.1,0.1,1.7s-0.6,1-1.1,1.3s-1.1,0.3-1.6,0.1c-0.6-0.2-1-0.6-1.2-1.1L48.4,9.7
	l-8.3,18.1c-0.3,0.5-0.7,0.9-1.2,1.1c-0.6,0.2-1.1,0.2-1.6-0.1c-0.5-0.3-0.9-0.7-1.1-1.3c-0.2-0.6-0.2-1.1,0.1-1.7L46.5,3.6z
	 M70.8,6.3c2.5-2.6,5.6-3.9,9.2-3.9c3.3,0,6.3,1.2,8.7,3.5c0.4,0.4,0.7,0.9,0.7,1.5S89.2,8.5,88.8,9s-0.9,0.7-1.5,0.7
	s-1.1-0.2-1.5-0.6c-1.6-1.5-3.6-2.3-5.8-2.3c-2.4,0-4.4,0.9-6.1,2.6s-2.5,3.8-2.5,6.3s0.8,4.6,2.5,6.3s3.7,2.6,6.1,2.6
	c2.2,0,4.2-0.8,5.8-2.3c0.4-0.4,0.9-0.6,1.5-0.6s1.1,0.3,1.5,0.7c0.4,0.5,0.6,1,0.6,1.6s-0.3,1.1-0.7,1.5C86.2,27.8,83.3,29,80,29
	c-3.6,0-6.6-1.3-9.2-3.9c-2.5-2.6-3.8-5.8-3.8-9.4C67,12,68.2,8.9,70.8,6.3z M115.8,3c0.4-0.4,0.9-0.6,1.5-0.6s1.1,0.2,1.5,0.6
	s0.6,0.9,0.6,1.5v22.3c0,0.6-0.2,1.1-0.6,1.5s-0.9,0.6-1.5,0.6s-1.1-0.2-1.5-0.6s-0.6-0.9-0.6-1.5V18h-13.1v8.8
	c0,0.6-0.2,1.1-0.6,1.5s-0.9,0.6-1.5,0.6s-1.1-0.2-1.5-0.6s-0.6-0.9-0.6-1.5V4.5c0-0.6,0.2-1.1,0.6-1.5s0.9-0.6,1.5-0.6
	s1.1,0.2,1.5,0.6s0.6,0.9,0.6,1.5v9.2h13V4.5C115.2,3.9,115.4,3.4,115.8,3z"/>
<path d="M132.5,29.3c-0.4,0-0.6-0.1-0.9-0.3c-0.2-0.2-0.3-0.5-0.3-0.9V3.6c0-0.3,0.1-0.6,0.3-0.8c0.3-0.2,0.6-0.3,0.9-0.3h8.9
	c2.8,0,4.9,0.7,6.4,2s2.3,3.2,2.3,5.7s-0.8,4.4-2.3,5.8c-1.5,1.3-3.7,2-6.4,2h-7.8v10c0,0.4-0.1,0.7-0.3,0.9
	C133.1,29.2,132.8,29.3,132.5,29.3z M141.3,15.8c4.4,0,6.5-1.9,6.5-5.8c0-3.8-2.2-5.7-6.5-5.7h-7.6v11.4h7.6V15.8z"/>
<path d="M178.9,27.8c0.1,0.2,0.1,0.3,0.1,0.5c0,0.3-0.1,0.5-0.3,0.7s-0.5,0.3-0.8,0.3c-0.2,0-0.4-0.1-0.6-0.2
	c-0.2-0.1-0.3-0.3-0.4-0.5L174,22h-14.7l-2.9,6.6c-0.2,0.5-0.6,0.7-1.1,0.7c-0.3,0-0.6-0.1-0.8-0.3c-0.2-0.2-0.3-0.5-0.3-0.8
	c0-0.2,0-0.3,0.1-0.4l11-24.8c0.2-0.6,0.6-0.8,1.2-0.8c0.3,0,0.5,0.1,0.8,0.2c0.3,0.2,0.4,0.4,0.5,0.6L178.9,27.8z M173,19.9
	l-6.4-14.6l-6.5,14.6H173z"/>
<path d="M201.2,2.7c0.2-0.3,0.5-0.5,0.8-0.5s0.5,0.1,0.7,0.3S203,3,203,3.3s-0.1,0.5-0.3,0.7l-9.5,12.2V28c0,0.4-0.1,0.6-0.3,0.9
	c-0.2,0.2-0.5,0.3-0.8,0.3c-0.4,0-0.6-0.1-0.9-0.3c-0.2-0.2-0.3-0.5-0.3-0.9V16.1L181.6,4c-0.2-0.2-0.3-0.4-0.3-0.7s0.1-0.5,0.3-0.7
	c0.2-0.2,0.4-0.3,0.7-0.3s0.6,0.2,0.8,0.5l9,11.7L201.2,2.7z"/>
</svg>
