<?xml version="1.0" encoding="utf-8"?>
<!-- Generator: Adobe Illustrator 28.0.0, SVG Export Plug-In . SVG Version: 6.00 Build 0)  -->
<svg version="1.1" id="Capa_1" xmlns="http://www.w3.org/2000/svg" xmlns:xlink="http://www.w3.org/1999/xlink" x="0px" y="0px"
	 viewBox="0 0 122.8 32.4" style="enable-background:new 0 0 122.8 32.4;" xml:space="preserve">
<style type="text/css">
	.st0{fill:#6200EE;}
	.st1{fill-rule:evenodd;clip-rule:evenodd;fill:#6200EE;}
</style>
<path class="st0" d="M96.6,4.8c0-1.2,1-2.2,2.2-2.2c1.2,0,2.2,1,2.2,2.2v8.9h14.2V4.8c0-1.2,1-2.2,2.2-2.2c1.2,0,2.2,1,2.2,2.2v21.9
	c0,1.2-1,2.2-2.2,2.2c-1.2,0-2.2-1-2.2-2.2v-8.7H101v8.7c0,1.2-1,2.2-2.2,2.2c-1.2,0-2.2-1-2.2-2.2V4.8z"/>
<path class="st1" d="M74.1,3.4c2.4-1,5-1.2,7.6-0.7c2.5,0.5,4.9,1.8,6.7,3.6c0.9,0.9,0.9,2.4,0,3.3c-0.9,0.9-2.4,0.9-3.3,0
	c-1.2-1.2-2.7-2-4.4-2.3c-1.7-0.3-3.4-0.2-4.9,0.4c-1.6,0.6-2.9,1.7-3.9,3.1c-1,1.4-1.5,3-1.5,4.7c0,1.7,0.4,3.3,1.3,4.8
	c0.9,1.4,2.2,2.6,3.7,3.3c1.5,0.7,3.2,0.9,4.9,0.7c1.7-0.3,3.2-1,4.5-2.1c0.9-0.9,2.4-0.8,3.2,0.1c0.9,0.9,0.8,2.4-0.1,3.2
	c-1.9,1.7-4.3,2.9-6.8,3.3c-2.6,0.4-5.2,0-7.5-1c-2.4-1.1-4.3-2.8-5.7-5c-1.4-2.2-2.1-4.7-2-7.3c0.1-2.6,0.9-5.1,2.3-7.2
	C69.7,6.1,71.7,4.4,74.1,3.4z"/>
<path class="st1" d="M48.4,2.5c0.9,0,1.7,0.5,2.1,1.3l10.7,21.8c0.6,1.1,0.1,2.5-1,3.1c-1.1,0.6-2.5,0.1-3.1-1L48.4,10l-8.7,17.6
	c-0.6,1.1-1.9,1.6-3.1,1c-1.1-0.6-1.6-1.9-1-3.1L46.3,3.8C46.7,3,47.5,2.5,48.4,2.5z"/>
<path class="st1" d="M4.6,2.6c0.9-0.3,1.9,0.1,2.4,0.9l9.1,14l9.1-14c0.5-0.8,1.5-1.2,2.4-0.9c0.9,0.3,1.5,1.1,1.5,2.1v21.9
	c0,1.2-1,2.2-2.2,2.2c-1.2,0-2.2-1-2.2-2.2V11.9L18,22.6c-0.4,0.6-1.1,1-1.8,1c-0.7,0-1.4-0.4-1.8-1L7.4,11.9v14.7
	c0,1.2-1,2.2-2.2,2.2c-1.2,0-2.2-1-2.2-2.2V4.7C3.1,3.7,3.7,2.9,4.6,2.6z"/>
</svg>
